# xmcd
#
# Track frame offsets:
#	150
#	19109
#	35886
#	54620
#	70173
#	85097
#	102736
#	122943
#	148102
#	162896
#	185652
#
# Disc length: 2601 seconds
# Revision: 0
# Processed by: cddbd v1.5.2PL0 Copyright (c) Steve Scherf et al.
# Submitted via: dBpowerAMP V12.0
#
DISCID=a30a270b
DTITLE=Chris Golden - Shoebox
DYEAR=2013
DGENRE=Country
TTITLE0=Thank God I'm A Country Boy
TTITLE1=Shoebox
TTITLE2=Going Away
TTITLE3=Walls
TTITLE4=Home
TTITLE5=Those That Mind Don't Matter
TTITLE6=Southern Accent
TTITLE7=Back In The High Life Again
TTITLE8=Same Old Heart
TTITLE9=Gone At Last
TTITLE10=Little Buddy Boogie
EXTD=
EXTT0=
EXTT1=
EXTT2=
EXTT3=
EXTT4=
EXTT5=
EXTT6=
EXTT7=
EXTT8=
EXTT9=
EXTT10=
PLAYORDER=
